

Release info:

General
Format                                   : Matroska
Format version                           : Version 2
File size                                : 689 MiB
Duration                                 : 2h 8mn
Overall bit rate mode                    : Variable
Overall bit rate                         : 752 Kbps
Movie name                               : Mumbai Mirror 2013 DVDScr Hindi

Video
ID                                       : 1
Format                                   : MPEG-4 Visual
Format profile                           : Advanced Simple@L5
Format settings, BVOP                    : Yes
Format settings, QPel                    : No
Format settings, GMC                     : No warppoints
Format settings, Matrix                  : Default (H.263)
Codec ID                                 : V_MS/VFW/FOURCC / XVID
Codec ID/Hint                            : XviD
Duration                                 : 2h 8mn
Bit rate                                 : 649 Kbps
Width                                    : 608 pixels
Height                                   : 256 pixels
Display aspect ratio                     : 2.40:1
Frame rate mode                          : Constant
Frame rate                               : 25.000 fps
Color space                              : YUV
Chroma subsampling                       : 4:2:0
Bit depth                                : 8 bits
Scan type                                : Progressive
Compression mode                         : Lossy
Bits/(Pixel*Frame)                       : 0.167
Stream size                              : 595 MiB (86%)
Title                                    : Mumbai Mirror 2013 DVDScr Hindi
Language                                 : Hindi
Default                                  : Yes
Forced                                   : No

Audio
ID                                       : 2
Format                                   : MPEG Audio
Format version                           : Version 1
Format profile                           : Layer 3
Mode                                     : Joint stereo
Mode extension                           : MS Stereo
Muxing mode                              : Header stripping
Codec ID                                 : A_MPEG/L3
Codec ID/Hint                            : MP3
Duration                                 : 2h 9mn
Bit rate mode                            : Variable
Bit rate                                 : 88.0 Kbps
Channel(s)                               : 2 channels
Sampling rate                            : 32.0 KHz
Compression mode                         : Lossy
Stream size                              : 81.7 MiB (12%)
Title                                    : Mumbai Mirror 2013 DVDScr Hindi
Language                                 : Hindi
Default                                  : Yes
Forced                                   : No

Source:
credit to original movie ripper Team EXD (Thanks)

IMDB Info:

Genre
Crime,Thriller

Director
Ankush Bhatt

Producer
Raina Sachiin Joshi

Star Cast
Sachiin Joshi.... Abhijeet Patil
Prakash Raj.... Shetty
Vimala Raman.... Jia



Screen Shot:
 
http://www.shotpix.com/images/40642076021322192678.png 
http://www.shotpix.com/images/57595025209157476736.png 
http://www.shotpix.com/images/98963984505206975658.png 
http://www.shotpix.com/images/57407380096792158595.png